<svg width="15" height="15" viewBox="0 0 15 15" xmlns="http://www.w3.org/2000/svg"><title>icone_podPausado</title><g fill="none" fill-rule="evenodd"><circle fill="#ADB4BE" cx="7.5" cy="7.5" r="7.5"/><g fill="#FFF"><path d="M10.607 10.994c.19 0 .347-.15.347-.336v-6.3a.343.343 0 0 0-.347-.336H8.524a.343.343 0 0 0-.347.336v6.3c0 .185.156.336.347.336h2.083zM6.43 10.994c.19 0 .347-.15.347-.336v-6.3a.343.343 0 0 0-.347-.336H4.347A.343.343 0 0 0 4 4.358v6.3c0 .185.156.336.347.336H6.43z"/></g></g></svg>